<?xml version="1.0" standalone="no"?>
<!DOCTYPE svg PUBLIC "-//W3C//DTD SVG 20010904//EN"
 "http://www.w3.org/TR/2001/REC-SVG-20010904/DTD/svg10.dtd">
<svg version="1.0" xmlns="http://www.w3.org/2000/svg"
 width="1498.000000pt" height="356.000000pt" viewBox="0 0 1498.000000 356.000000"
 preserveAspectRatio="xMidYMid meet">

<g transform="translate(0.000000,356.000000) scale(0.100000,-0.100000)"
fill="#000000" stroke="none">
<path d="M4142 3544 c-55 -38 -52 73 -52 -1803 l0 -1730 100 0 100 1 0 1721
c0 1669 -1 1723 -19 1764 -29 62 -81 81 -129 47z"/>
<path d="M0 1778 l0 -1773 1775 0 1775 0 0 1555 0 1555 -223 -223 -222 -222
-220 0 -220 0 219 219 219 219 -213 221 -214 221 -310 0 -311 0 220 -220 220
-220 -225 -220 -225 -219 -260 0 -260 -1 220 220 220 220 -220 220 -220 220
-310 0 -310 0 213 -213 c116 -117 212 -217 212 -224 0 -6 -100 -108 -222 -227
l-222 -216 -220 0 -221 1 222 218 222 217 -222 222 -222 222 -223 0 -222 0 0
-1772z m3110 -218 l0 -220 -1335 0 -1335 0 0 220 0 220 1335 0 1335 0 0 -220z
m-5 -885 l0 -220 -1330 0 -1330 0 -3 210 c-1 115 0 215 2 222 4 11 262 13
1333 11 l1328 -3 0 -220z"/>
<path d="M3326 3338 c115 -117 212 -214 217 -216 4 -2 7 93 7 212 l0 216 -217
0 -217 0 210 -212z"/>
<path d="M7435 3445 c-180 -34 -340 -147 -411 -290 -70 -142 -68 -113 -71
-806 -4 -698 -3 -713 61 -844 104 -212 345 -328 644 -312 127 7 201 25 301 75
104 52 192 136 236 225 65 133 66 147 63 846 -3 562 -5 632 -21 686 -63 211
-208 356 -412 410 -86 23 -291 28 -390 10z m297 -226 c123 -26 229 -111 268
-215 38 -102 41 -170 38 -735 -4 -602 -4 -595 -71 -695 -72 -107 -190 -159
-362 -159 -136 0 -204 20 -290 85 -77 58 -121 140 -135 250 -12 97 -13 1010
-1 1115 23 195 115 309 286 351 64 16 199 17 267 3z"/>
<path d="M4830 2315 l0 -1095 110 0 110 0 2 753 3 752 250 -752 249 -753 107
0 106 0 248 738 c136 405 251 744 256 752 5 9 9 -305 9 -737 l0 -753 110 0
110 0 0 1095 0 1096 -112 -3 -113 -3 -305 -882 c-168 -485 -307 -879 -310
-876 -3 2 -140 399 -306 881 l-301 877 -111 3 -112 3 0 -1096z"/>
<path d="M8655 3323 c14 -49 149 -541 302 -1095 l278 -1008 142 0 c78 0 144 4
147 8 6 10 596 2160 596 2173 0 5 -54 9 -123 9 l-122 0 -244 -902 c-134 -497
-247 -906 -251 -911 -3 -4 -111 379 -240 850 -128 472 -240 882 -248 911 l-15
52 -123 0 -123 0 24 -87z"/>
<path d="M10432 3308 l3 -103 103 -3 102 -3 0 -990 0 -990 113 3 112 3 3 1093
2 1092 -220 0 -221 0 3 -102z"/>
<path d="M11350 2315 l0 -1095 520 0 521 0 -3 103 -3 102 -402 3 -403 2 0 430
0 430 234 0 234 0 33 98 c17 53 34 103 37 110 3 9 -54 12 -267 12 l-271 0 0
340 0 340 405 0 405 0 0 110 0 110 -520 0 -520 0 0 -1095z"/>
<path d="M12810 3397 c0 -8 108 -498 240 -1090 132 -592 240 -1079 240 -1082
0 -3 70 -5 155 -5 85 0 155 3 155 7 0 13 292 1618 295 1621 1 2 5 -12 9 -30
75 -417 288 -1576 291 -1585 3 -10 43 -13 154 -13 l149 0 7 32 c4 18 94 427
200 909 152 690 199 890 223 940 42 89 52 132 52 227 l0 82 -124 0 c-90 0
-125 -3 -128 -12 -3 -7 -87 -408 -188 -890 -102 -483 -187 -874 -190 -870 -4
4 -78 392 -164 862 -87 470 -161 867 -163 883 l-5 27 -123 0 -122 0 -6 -27
c-3 -16 -76 -413 -163 -883 -87 -470 -160 -858 -164 -862 -3 -5 -86 362 -184
815 -98 452 -185 852 -193 890 l-15 67 -119 0 c-93 0 -119 -3 -119 -13z"/>
<path d="M4832 283 l3 -278 33 -3 c19 -2 44 4 58 13 24 15 24 15 24 203 l0
187 83 -83 c45 -45 86 -82 90 -82 4 0 7 31 7 69 l0 68 -99 92 c-98 90 -100 91
-150 91 l-51 0 2 -277z"/>
<path d="M5281 468 l-99 -93 -1 -73 -1 -74 93 86 92 86 3 -187 c2 -163 5 -188
20 -199 25 -19 88 -18 96 2 3 9 6 135 6 280 l0 264 -55 0 -54 0 -100 -92z"/>
<path d="M6288 542 c-27 -8 -48 -20 -48 -25 0 -6 51 -96 114 -201 62 -105 123
-208 135 -229 42 -74 54 -88 74 -85 14 2 64 78 172 258 85 140 150 258 147
261 -4 4 -28 13 -53 22 l-46 15 -99 -166 -99 -166 -5 -80 c-4 -63 -8 -81 -20
-81 -12 0 -16 18 -20 85 l-5 85 -98 163 c-54 89 -99 162 -100 161 -1 0 -23 -8
-49 -17z"/>
<path d="M6980 515 l0 -45 61 0 60 0 -3 43 -3 42 -57 3 -58 3 0 -46z"/>
<path d="M8970 280 l0 -280 43 0 c76 1 76 2 79 213 l3 187 93 -86 92 -86 -1
74 -1 73 -98 93 -99 92 -55 0 -56 0 0 -280z"/>
<path d="M9427 467 l-97 -92 0 -75 0 -75 90 90 90 90 0 -191 c0 -134 4 -194
12 -202 7 -7 34 -12 60 -12 l48 0 0 280 0 280 -52 0 c-53 -1 -53 -1 -151 -93z"/>
<path d="M11988 542 c-27 -9 -48 -20 -48 -25 0 -4 68 -123 152 -263 159 -265
171 -279 203 -230 72 110 292 493 286 498 -3 4 -27 14 -52 21 l-46 14 -97
-161 c-96 -161 -96 -162 -96 -228 0 -81 -5 -97 -31 -91 -16 5 -19 15 -19 76
l0 70 -97 164 c-53 90 -99 165 -102 167 -3 2 -27 -4 -53 -12z"/>
<path d="M12680 515 l0 -45 60 0 60 0 0 45 0 45 -60 0 -60 0 0 -45z"/>
<path d="M14340 380 l0 -180 65 0 65 0 0 180 0 180 -65 0 -65 0 0 -180z"/>
<path d="M5640 397 l-55 -33 -3 -172 -2 -172 60 0 60 0 0 35 c0 24 5 35 15 35
10 0 15 -11 15 -35 l0 -35 110 0 110 0 0 35 c0 24 5 35 15 35 10 0 15 -11 15
-35 l0 -35 86 0 87 0 -7 52 c-3 29 -6 107 -6 173 l0 120 -54 33 c-48 29 -62
32 -130 32 l-76 0 0 -45 0 -44 73 -3 72 -3 3 -112 3 -113 -76 0 c-43 0 -75 -4
-75 -10 0 -5 -7 -10 -15 -10 -8 0 -15 5 -15 10 0 6 -32 10 -75 10 l-75 0 0
115 0 115 76 0 75 0 -3 43 -3 42 -75 2 c-69 2 -79 0 -130 -30z"/>
<path d="M6980 215 l0 -215 60 0 60 0 0 215 0 215 -60 0 -60 0 0 -215z"/>
<path d="M7310 397 l-55 -33 -3 -182 -2 -182 54 0 c45 0 57 4 66 20 9 17 21
20 80 20 l70 0 0 35 0 35 -75 0 -75 0 0 40 0 40 75 0 75 0 0 35 0 35 -75 0
-75 0 0 40 0 40 75 0 75 0 0 45 0 45 -77 0 c-70 0 -83 -3 -133 -33z"/>
<path d="M7560 385 l0 -45 75 0 75 0 0 -40 0 -40 -75 0 -75 0 0 -35 0 -35 81
0 c73 0 87 3 136 31 l54 31 -3 56 -3 56 -55 33 c-50 30 -63 33 -132 33 l-78 0
0 -45z"/>
<path d="M7968 412 c-27 -8 -48 -20 -48 -25 0 -9 42 -157 86 -304 l25 -83 40
0 c55 0 129 43 129 75 0 13 5 27 10 30 11 7 14 145 3 145 -4 0 -30 -23 -59
-51 l-51 -50 -38 140 c-21 78 -41 141 -44 140 -3 0 -27 -8 -53 -17z"/>
<path d="M8435 417 c-3 -7 -16 -61 -30 -122 -14 -60 -28 -116 -31 -124 -3 -10
-21 1 -59 39 l-55 54 0 -76 c0 -54 6 -94 21 -133 l20 -55 67 0 c37 0 73 4 81
9 10 7 111 351 111 382 0 4 -27 13 -61 22 -44 11 -61 12 -64 4z"/>
<path d="M9788 398 l-57 -32 -3 -173 -3 -173 63 0 62 0 0 35 c0 28 4 35 20 35
16 0 20 -7 20 -35 l0 -35 50 0 50 0 0 45 0 45 -70 0 -70 0 0 115 0 115 70 0
70 0 0 45 0 45 -72 0 c-63 0 -81 -5 -130 -32z"/>
<path d="M10030 385 l0 -45 70 0 70 0 0 -115 0 -115 -70 0 -70 0 0 -45 0 -45
50 0 50 0 0 35 c0 28 4 35 20 35 17 0 20 -7 20 -45 l0 -45 63 0 62 0 -3 183
-3 183 -58 32 c-50 28 -68 32 -130 32 l-71 0 0 -45z"/>
<path d="M10467 423 c-4 -3 -7 -87 -7 -185 l0 -178 60 0 59 0 3 137 3 138 73
3 72 3 0 39 c0 45 -3 46 -74 25 -65 -20 -76 -19 -76 5 0 18 -7 20 -53 20 -30
0 -57 -3 -60 -7z"/>
<path d="M11042 398 c-30 -17 -55 -36 -57 -42 -3 -6 -6 -86 -7 -179 l-3 -167
61 0 c46 0 63 4 68 15 4 11 22 15 76 15 l71 0 -3 32 -3 33 -72 3 -73 3 0 39 0
40 75 0 75 0 0 35 0 35 -75 0 -75 0 0 40 0 40 75 0 75 0 0 45 0 45 -77 0 c-69
0 -84 -4 -131 -32z"/>
<path d="M11290 385 l0 -45 75 0 75 0 0 -40 0 -40 -75 0 -75 0 0 -35 0 -35 81
0 c73 0 87 3 136 31 l54 31 -3 56 -3 56 -55 33 c-50 30 -63 33 -132 33 l-78 0
0 -45z"/>
<path d="M12680 215 l0 -215 60 0 60 0 0 215 0 215 -60 0 -60 0 0 -215z"/>
<path d="M13010 397 l-55 -33 -3 -182 -2 -182 54 0 c45 0 57 4 66 20 9 17 21
20 80 20 l70 0 0 35 0 35 -76 0 -75 0 3 37 3 38 73 3 72 3 0 34 0 35 -75 0
-75 0 0 40 0 40 75 0 75 0 0 45 0 45 -77 0 c-70 0 -83 -3 -133 -33z"/>
<path d="M13267 423 c-4 -3 -7 -24 -7 -45 l0 -38 75 0 75 0 0 -40 0 -40 -75 0
-75 0 0 -35 0 -35 81 0 c73 0 87 3 135 31 l54 30 0 57 0 57 -56 33 c-49 28
-64 32 -128 32 -40 0 -76 -3 -79 -7z"/>
<path d="M13670 413 c-25 -9 -47 -17 -48 -19 -4 -2 43 -172 90 -326 19 -65 22
-68 50 -68 42 0 138 56 138 80 0 10 5 22 10 25 6 3 10 41 10 83 l0 76 -53 -52
c-29 -29 -55 -52 -59 -52 -3 0 -23 61 -43 135 -21 74 -40 135 -44 134 -3 0
-26 -8 -51 -16z"/>
<path d="M14131 392 c-6 -21 -19 -75 -31 -122 -11 -47 -23 -91 -26 -99 -3 -10
-21 1 -59 39 l-55 54 0 -72 c0 -39 5 -92 12 -117 l12 -45 98 0 c92 0 98 1 98
20 0 12 18 93 40 182 23 88 40 162 38 163 -2 2 -29 10 -60 18 l-58 15 -9 -36z"/>
<path d="M10770 360 l0 -60 60 0 60 0 0 38 c0 37 -2 39 -53 60 -29 12 -56 22
-60 22 -4 0 -7 -27 -7 -60z"/>
<path d="M7700 125 c0 -12 -14 -15 -70 -15 l-70 0 0 -37 0 -36 126 6 c69 4
130 9 135 12 5 4 9 24 9 46 l0 39 -65 0 c-51 0 -65 -3 -65 -15z"/>
<path d="M11430 125 c0 -12 -14 -15 -70 -15 l-70 0 0 -37 0 -36 126 6 c69 4
130 9 135 12 5 4 9 24 9 46 l0 39 -65 0 c-51 0 -65 -3 -65 -15z"/>
<path d="M13410 125 c0 -12 -14 -15 -68 -15 -38 0 -71 -2 -74 -5 -2 -3 -2 -19
0 -36 l5 -32 119 6 c66 4 124 9 129 13 5 3 9 23 9 45 l0 39 -60 0 c-47 0 -60
-3 -60 -15z"/>
<path d="M14340 85 l0 -55 65 0 65 0 0 55 0 55 -65 0 -65 0 0 -55z"/>
</g>
</svg>
